<svg xmlns="http://www.w3.org/2000/svg" xmlns:xlink="http://www.w3.org/1999/xlink" width="646.24" height="108.408" viewBox="0 0 646.24 108.408">
  <defs>
    <clipPath id="clip-path">
      <rect id="Rectangle_125" data-name="Rectangle 125" width="646.24" height="108.408" fill="none"/>
    </clipPath>
  </defs>
  <g id="Group_301" data-name="Group 301" transform="translate(0 0)">
    <g id="Group_161" data-name="Group 161" transform="translate(0 0)" clip-path="url(#clip-path)">
      <path id="Path_220" data-name="Path 220" d="M115.179,86.34a20.176,20.176,0,0,1-5.189-.579,24.788,24.788,0,0,1-4.416-1.689l-.483-7.964h.773l2.558,5.261a12.024,12.024,0,0,0,3.33,2.027,9.109,9.109,0,0,0,3.282.627,6.377,6.377,0,0,0,4.416-1.448,5.044,5.044,0,0,0,1.617-3.957,5.119,5.119,0,0,0-.894-3.161,7.942,7.942,0,0,0-2.654-2.124q-1.763-.941-4.319-2.2a19.418,19.418,0,0,1-5.262-3.45,6.833,6.833,0,0,1-1.833-5.091,7.142,7.142,0,0,1,.845-3.354,10.018,10.018,0,0,1,2.292-2.9,12.057,12.057,0,0,1,3.234-2.051,9.257,9.257,0,0,1,3.716-.773,16.328,16.328,0,0,1,4.248.531,19.062,19.062,0,0,1,3.908,1.544l.483,7.723h-.773l-2.508-5.165a12.924,12.924,0,0,0-2.8-1.737,7.258,7.258,0,0,0-2.847-.531,4.645,4.645,0,0,0-3.452,1.4,5.317,5.317,0,0,0,.1,7.24,19.586,19.586,0,0,0,4.754,2.9,39.92,39.92,0,0,1,4.8,2.678,8.834,8.834,0,0,1,2.823,2.871,9.094,9.094,0,0,1-.048,8.062,9.114,9.114,0,0,1-2.556,2.921,12.142,12.142,0,0,1-7.144,2.388" transform="translate(43.333 22.068)" fill="#1a1a1a"/>
      <path id="Path_221" data-name="Path 221" d="M128.125,85.717v-.773l3.908-1.931V56.564l-3.908-1.929v-.773h12.886v.773L137.1,56.564v26.45l3.909,1.931v.773ZM137.1,69.451l13.321-13.177L147,54.635v-.773h10.426v.773l-3.041,1.2L142.024,67.954,156.89,83.641l3.041,1.3v.773h-7.867Z" transform="translate(52.831 22.209)" fill="#1a1a1a"/>
      <path id="Path_222" data-name="Path 222" d="M157.582,85.717v-.773l3.909-1.931V56.564l-3.909-1.929v-.773H171q5.07,0,7.988,2.1a6.725,6.725,0,0,1,2.921,5.768,7,7,0,0,1-1.835,4.778,11.735,11.735,0,0,1-4.826,3.186l9.122,13.465,3.233,1.787v.773h-7.771l-9.268-14.673h-4.005V82.966l3.62,1.979v.773Zm11.824-29.2h-2.847V68.487H169.7a7.237,7.237,0,0,0,4.947-1.713,5.551,5.551,0,0,0,1.955-4.368,5.288,5.288,0,0,0-1.907-4.32,8.09,8.09,0,0,0-5.285-1.569" transform="translate(64.977 22.209)" fill="#1a1a1a"/>
      <path id="Path_223" data-name="Path 223" d="M183.93,88.21v-.773l3.039-1.593,12.4-29.73h2.655L214.288,85.7l3.234,1.737v.773H204.779v-.773l4.248-1.689-3.572-8.687H193.823L190.3,85.8l4.055,1.641v.773Zm12.258-35.475a2.391,2.391,0,1,1,1.763-.7,2.389,2.389,0,0,1-1.763.7m-1.253,21.672h9.458l-4.73-11.633Zm10.327-21.672a2.471,2.471,0,0,1-1.785-.7,2.508,2.508,0,0,1,0-3.524,2.471,2.471,0,0,1,1.785-.7,2.461,2.461,0,1,1,0,4.922" transform="translate(75.842 19.715)" fill="#1a1a1a"/>
      <path id="Path_224" data-name="Path 224" d="M215.233,85.717v-.773l3.909-1.931V56.564l-3.909-1.929v-.773h14.673a20.664,20.664,0,0,1,9.218,1.881,13.749,13.749,0,0,1,5.817,5.165,13.992,13.992,0,0,1,2,7.433,18.188,18.188,0,0,1-1.3,6.95,16.364,16.364,0,0,1-3.644,5.5,16.919,16.919,0,0,1-5.5,3.62,18.008,18.008,0,0,1-6.926,1.3Zm13.369-29.2h-4.391V83.062h5.116a12.813,12.813,0,0,0,6.611-1.617,10.856,10.856,0,0,0,4.25-4.584,15.428,15.428,0,0,0,1.5-7.022,15.407,15.407,0,0,0-1.521-7.024,10.806,10.806,0,0,0-4.44-4.658,14.348,14.348,0,0,0-7.12-1.641" transform="translate(88.749 22.209)" fill="#1a1a1a"/>
      <path id="Path_225" data-name="Path 225" d="M246.366,85.717v-.773l3.909-1.931V56.564l-3.909-1.929v-.773h14.673a20.664,20.664,0,0,1,9.218,1.881,13.745,13.745,0,0,1,5.816,5.165,13.979,13.979,0,0,1,2,7.433,18.161,18.161,0,0,1-1.3,6.95,16.342,16.342,0,0,1-3.644,5.5,16.9,16.9,0,0,1-5.5,3.62,18.009,18.009,0,0,1-6.926,1.3Zm13.369-29.2h-4.391V83.062h5.115a12.814,12.814,0,0,0,6.611-1.617,10.844,10.844,0,0,0,4.248-4.584,15.429,15.429,0,0,0,1.5-7.022,15.425,15.425,0,0,0-1.521-7.024,10.806,10.806,0,0,0-4.44-4.658,14.348,14.348,0,0,0-7.12-1.641" transform="translate(101.587 22.209)" fill="#1a1a1a"/>
      <path id="Path_226" data-name="Path 226" d="M275.482,85.786v-.771l3.039-1.593,12.406-29.731h2.654L305.84,83.277l3.234,1.739v.771H296.332v-.771l4.248-1.691-3.573-8.687H285.377l-3.524,8.735,4.055,1.643v.771Zm11-13.8h9.458l-4.729-11.632Z" transform="translate(113.592 22.138)" fill="#1a1a1a"/>
      <path id="Path_227" data-name="Path 227" d="M306.786,85.717v-.773l3.909-1.931V56.564l-3.909-1.929v-.773H320.2q5.07,0,7.988,2.1a6.725,6.725,0,0,1,2.921,5.768,7,7,0,0,1-1.835,4.778,11.735,11.735,0,0,1-4.826,3.186l9.122,13.465,3.233,1.787v.773h-7.771l-9.268-14.673h-4.005V82.966l3.62,1.979v.773Zm11.824-29.2h-2.847V68.487H318.9a7.237,7.237,0,0,0,4.947-1.713,5.55,5.55,0,0,0,1.955-4.368,5.288,5.288,0,0,0-1.907-4.32,8.09,8.09,0,0,0-5.285-1.569" transform="translate(126.5 22.209)" fill="#1a1a1a"/>
      <path id="Path_228" data-name="Path 228" d="M334.364,85.717v-.773l3.909-1.931V56.563l-3.909-1.929v-.773h24.229v8.3h-.773l-3.137-5.648H343.341v11.44h8.012l2.46-4.053h.773V74.567h-.773l-2.46-3.956h-8.012V83.062h12.646l3.185-6.371h.773v9.026Z" transform="translate(137.872 22.209)" fill="#1a1a1a"/>
      <path id="Path_229" data-name="Path 229" d="M308.164,47.733H292.312l-1.152-.562V5.377L298.5,2.207V.97h-.88V.547H273.275V.97h-.356V2.207l6.541,3.155V23.193H258.049V4.954l6.031-3.169V.547H239.809V1.785l6.569,3.169v42.2l-6.569,3.166v1.239H264.08V50.323l-6.031-3.166V27.445H279.46V47.157l-6.185,3.166v.251l-.356.172v1.237h42.743V33.124h-1.236Z" transform="translate(98.883 0.225)" fill="#040405"/>
      <path id="Path_230" data-name="Path 230" d="M35.245,47.311h-17V4.955l7.343-3.169V.547H0V1.786L6.569,4.955v42.2L0,50.324v1.239H42.743V32.7H41.507Z" transform="translate(0 0.225)" fill="#040405"/>
      <path id="Path_231" data-name="Path 231" d="M37.05,1.785l6.569,3.169v42.2L37.05,50.323v1.239H61.86V50.323l-6.57-3.166V4.955l6.57-3.169V.547H37.05Z" transform="translate(15.277 0.225)" fill="#040405"/>
      <path id="Path_232" data-name="Path 232" d="M84.536,21.179a32.623,32.623,0,0,1-7.922-4.6,6.7,6.7,0,0,1-2.281-5.219A7.066,7.066,0,0,1,76.42,6.029a7.27,7.27,0,0,1,5.257-2.01,10.809,10.809,0,0,1,4.289.811,18.506,18.506,0,0,1,3.9,2.359l5.411,8.733h1.313L95.82,3.555A28.74,28.74,0,0,0,89.1.926,30.557,30.557,0,0,0,81.52,0a19.1,19.1,0,0,0-6.762,1.236,20.857,20.857,0,0,0-5.952,3.439A17.813,17.813,0,0,0,64.557,9.7a11.876,11.876,0,0,0-1.586,5.912,12.024,12.024,0,0,0,2.938,8.269A23.68,23.68,0,0,0,74.333,29.6q4.868,2.163,7.652,3.671a11.432,11.432,0,0,1,3.981,3.209,7.344,7.344,0,0,1,1.2,4.327,6.83,6.83,0,0,1-2.627,5.834,11.022,11.022,0,0,1-6.8,1.973,13.9,13.9,0,0,1-4.987-.928,16.267,16.267,0,0,1-4.521-2.628l-5.488-9.508H61.348l.773,13.064a38.424,38.424,0,0,0,7.536,2.9,34.981,34.981,0,0,0,9.005,1.044A24.19,24.19,0,0,0,88.014,50.7a18.129,18.129,0,0,0,7.343-5.409,13.141,13.141,0,0,0,2.86-8.5,12.3,12.3,0,0,0-3.323-8.968q-3.324-3.4-10.358-6.645" transform="translate(25.296 -0.001)" fill="#040405"/>
      <path id="Path_233" data-name="Path 233" d="M123.9.274h-6.8L96.927,47.811l-4.713,2.626v1.239h16.773V50.436l-6.416-2.779,5.255-12.833h18.319L131.4,47.657l-6.724,2.779v1.239H149.1V50.436l-5.257-2.779Zm-14.3,30.3,7.42-18.01,7.343,18.01Z" transform="translate(38.024 0.112)" fill="#040405"/>
      <path id="Path_234" data-name="Path 234" d="M194.875,3.562A36.551,36.551,0,0,0,179.263.547H152.906V1.786l6.569,3.169v42.2l-6.569,3.166v1.239h25.815a31.708,31.708,0,0,0,11.672-2.089,28.55,28.55,0,0,0,9.275-5.795,26.255,26.255,0,0,0,6.145-8.813,27.772,27.772,0,0,0,2.2-11.131,21.62,21.62,0,0,0-3.363-11.9,22.708,22.708,0,0,0-9.778-8.269m-3.864,37.989q-4.87,5.76-13.835,5.76h-6.029V4.8h4.946q9.815,0,14.8,5.8t4.984,15.536q0,9.663-4.868,15.42" transform="translate(63.049 0.225)" fill="#040405"/>
      <path id="Path_235" data-name="Path 235" d="M227.446.274h-6.8L200.47,47.811l-4.713,2.626v1.239H212.53V50.436l-6.416-2.779,5.255-12.833h18.319l5.255,12.833-6.724,2.779v1.239h24.425V50.436l-5.257-2.779Zm-14.3,30.3,7.42-18.01,7.343,18.01Z" transform="translate(80.718 0.112)" fill="#040405"/>
      <path id="Path_236" data-name="Path 236" d="M325.028,29.834l6.673,3.633v14.3a23.824,23.824,0,0,1-3,.425q-1.5.117-2.775.116a13.73,13.73,0,0,1-8.285-2.7,18.3,18.3,0,0,1-5.885-7.69,29.742,29.742,0,0,1-2.175-11.943,28.081,28.081,0,0,1,2.25-11.633,19.034,19.034,0,0,1,6.073-7.768,14.182,14.182,0,0,1,8.548-2.781,16.616,16.616,0,0,1,4.272.5,13.79,13.79,0,0,1,3.9,1.816l7.2,11.208h1.349l-.825-13.6q-2.176-1.083-4.387-1.932A25.585,25.585,0,0,0,332.938.463,42.462,42.462,0,0,0,326.152,0a28.986,28.986,0,0,0-10.721,2.01,28.466,28.466,0,0,0-9.071,5.72,26.9,26.9,0,0,0-6.223,8.694,26.281,26.281,0,0,0-2.25,10.937,24.977,24.977,0,0,0,1.986,10.009,24.211,24.211,0,0,0,5.549,8,25.829,25.829,0,0,0,8.248,5.293,26.651,26.651,0,0,0,10.084,1.894,30.627,30.627,0,0,0,6.783-.811,37.92,37.92,0,0,0,6.823-2.241,21.942,21.942,0,0,0,5.587-3.44V33.544l5.623-3.71V28.6H325.028Z" transform="translate(122.831 -0.001)" fill="#040405"/>
      <path id="Path_237" data-name="Path 237" d="M372.364,25.28a19.129,19.129,0,0,0,7.274-4.83,10.5,10.5,0,0,0,2.772-7.3,10.875,10.875,0,0,0-4.535-9.238Q373.337.548,365.466.547H339.825V1.784L346.2,4.954v42.2l-6.372,3.168v1.237h23.318V50.324l-5.624-3.246V27.91h3.974l13.869,23.651h16.27V50.324l-5.4-3.092Zm-4.049-3.864a9.913,9.913,0,0,1-7.347,2.706h-3.449V4.8h3q5.176,0,7.836,2.514a9.26,9.26,0,0,1,2.661,7.072,9.525,9.525,0,0,1-2.7,7.033" transform="translate(140.123 0.225)" fill="#040405"/>
      <path id="Path_238" data-name="Path 238" d="M416.454,47.31H398.236V27.368H409.78l4.2,6.494h1.2V16.47h-1.2l-4.2,6.646H398.236V4.8h16.418l5.548,9.121h1.2V.547H380.541V1.784l6.372,3.169v42.2l-6.372,3.168v1.237H423.5V35.794h-1.2Z" transform="translate(156.912 0.225)" fill="#040405"/>
      <path id="Path_239" data-name="Path 239" d="M453.5.547V1.784l8.547,3.09V34.4L432.954.547H418.709V1.784l6.374,3.247V47.156l-6.374,3.168v1.237h20.168V50.323l-8.546-3.168V14.693l32.314,37.255h4.648V4.953l6.3-3.169V.547Z" transform="translate(172.65 0.225)" fill="#040405"/>
    </g>
  </g>
</svg>
