<svg xmlns="http://www.w3.org/2000/svg" width="30" height="30" viewBox="0 0 30 30">
  <path id="icons8-instagram" d="M13.821,5A8.856,8.856,0,0,0,5,13.821V26.179A8.856,8.856,0,0,0,13.821,35H26.179A8.856,8.856,0,0,0,35,26.179V13.821A8.856,8.856,0,0,0,26.179,5Zm0,2.727H26.179a6.086,6.086,0,0,1,6.094,6.094V26.179a6.086,6.086,0,0,1-6.094,6.094H13.821a6.086,6.086,0,0,1-6.094-6.094V13.821A6.086,6.086,0,0,1,13.821,7.727ZM28.054,10.71a1.236,1.236,0,1,0,1.236,1.236A1.23,1.23,0,0,0,28.054,10.71ZM20,11.818A8.182,8.182,0,1,0,28.182,20,8.2,8.2,0,0,0,20,11.818Zm0,2.727A5.455,5.455,0,1,1,14.545,20,5.431,5.431,0,0,1,20,14.545Z" transform="translate(-5 -5)" fill="#d6dbd5"/>
</svg>
