<svg xmlns="http://www.w3.org/2000/svg" xmlns:xlink="http://www.w3.org/1999/xlink" width="73.235" height="50" viewBox="0 0 73.235 50">
  <defs>
    <clipPath id="clip-path">
      <rect id="Rectangle_124" data-name="Rectangle 124" width="73.235" height="50" fill="none"/>
    </clipPath>
  </defs>
  <g id="Group_159" data-name="Group 159" clip-path="url(#clip-path)">
    <path id="Path_199" data-name="Path 199" d="M103.808,292.879a2.289,2.289,0,0,1-.588-.066,2.815,2.815,0,0,1-.5-.191l-.055-.9h.088l.29.6a1.363,1.363,0,0,0,.377.23,1.032,1.032,0,0,0,.372.071.723.723,0,0,0,.5-.164.572.572,0,0,0,.183-.448.58.58,0,0,0-.1-.358.9.9,0,0,0-.3-.241q-.2-.107-.489-.249a2.2,2.2,0,0,1-.6-.391.774.774,0,0,1-.208-.577.809.809,0,0,1,.1-.38,1.135,1.135,0,0,1,.26-.328,1.365,1.365,0,0,1,.367-.232,1.049,1.049,0,0,1,.421-.088,1.851,1.851,0,0,1,.481.06,2.16,2.16,0,0,1,.443.175l.055.875h-.088l-.284-.585a1.465,1.465,0,0,0-.317-.2.823.823,0,0,0-.323-.06.526.526,0,0,0-.391.159.6.6,0,0,0,.011.82,2.22,2.22,0,0,0,.539.328,4.52,4.52,0,0,1,.544.3,1,1,0,0,1,.32.325,1.031,1.031,0,0,1-.005.914,1.033,1.033,0,0,1-.29.331,1.376,1.376,0,0,1-.81.271" transform="translate(-86.233 -242.879)" fill="#1a1a1a"/>
    <path id="Path_200" data-name="Path 200" d="M125.7,293.112v-.088l.443-.219v-3l-.443-.219V289.5h1.46v.088l-.443.219v3l.443.219v.088Zm1.017-1.843,1.51-1.493-.388-.186V289.5h1.182v.088l-.345.137-1.4,1.373,1.685,1.778.345.148v.088h-.891Z" transform="translate(-105.58 -243.167)" fill="#1a1a1a"/>
    <path id="Path_201" data-name="Path 201" d="M155.156,293.111v-.088l.443-.219v-3l-.443-.219V289.5h1.52a1.524,1.524,0,0,1,.905.238.762.762,0,0,1,.331.654.794.794,0,0,1-.208.541,1.33,1.33,0,0,1-.547.361l1.034,1.526.366.2v.088h-.881l-1.05-1.663h-.454V292.8l.41.224v.088Zm1.34-3.309h-.323v1.357h.355a.82.82,0,0,0,.561-.194.629.629,0,0,0,.221-.5.6.6,0,0,0-.216-.49.917.917,0,0,0-.6-.178" transform="translate(-130.323 -243.166)" fill="#1a1a1a"/>
    <path id="Path_202" data-name="Path 202" d="M181.505,288.031v-.088l.344-.181,1.406-3.369h.3l1.389,3.353.367.2v.088h-1.444v-.088l.481-.191-.4-.984h-1.318l-.4.99.46.186v.088Zm1.389-4.02a.271.271,0,1,1,.2-.079.271.271,0,0,1-.2.079m-.142,2.456h1.072l-.536-1.318Zm1.17-2.456a.28.28,0,0,1-.2-.079.285.285,0,0,1,0-.4.28.28,0,0,1,.2-.079.279.279,0,1,1,0,.558" transform="translate(-152.455 -238.086)" fill="#1a1a1a"/>
    <path id="Path_203" data-name="Path 203" d="M212.807,293.111v-.088l.443-.219v-3l-.443-.219V289.5h1.663a2.342,2.342,0,0,1,1.045.213,1.557,1.557,0,0,1,.659.585,1.584,1.584,0,0,1,.227.842,2.058,2.058,0,0,1-.148.788,1.851,1.851,0,0,1-.413.624,1.915,1.915,0,0,1-.623.41,2.041,2.041,0,0,1-.785.148Zm1.515-3.309h-.5v3.008h.58a1.452,1.452,0,0,0,.749-.183,1.229,1.229,0,0,0,.481-.52,1.938,1.938,0,0,0,0-1.592,1.224,1.224,0,0,0-.5-.528,1.626,1.626,0,0,0-.807-.186" transform="translate(-178.747 -243.166)" fill="#1a1a1a"/>
    <path id="Path_204" data-name="Path 204" d="M243.939,293.111v-.088l.443-.219v-3l-.443-.219V289.5H245.6a2.342,2.342,0,0,1,1.045.213,1.558,1.558,0,0,1,.659.585,1.584,1.584,0,0,1,.227.842,2.058,2.058,0,0,1-.148.788,1.852,1.852,0,0,1-.413.624,1.916,1.916,0,0,1-.623.41,2.04,2.04,0,0,1-.785.148Zm1.515-3.309h-.5v3.008h.58a1.452,1.452,0,0,0,.749-.183,1.229,1.229,0,0,0,.481-.52,1.937,1.937,0,0,0,0-1.592,1.225,1.225,0,0,0-.5-.528,1.626,1.626,0,0,0-.807-.186" transform="translate(-204.896 -243.166)" fill="#1a1a1a"/>
    <path id="Path_205" data-name="Path 205" d="M273.057,292.968v-.087l.344-.181,1.406-3.369h.3l1.389,3.353.367.2v.087H275.42v-.087l.481-.192-.4-.984h-1.318l-.4.99.46.186v.087ZM274.3,291.4h1.072l-.536-1.318Z" transform="translate(-229.354 -243.023)" fill="#1a1a1a"/>
    <path id="Path_206" data-name="Path 206" d="M304.361,293.111v-.088l.443-.219v-3l-.443-.219V289.5h1.52a1.524,1.524,0,0,1,.905.238.762.762,0,0,1,.331.654.793.793,0,0,1-.208.541,1.33,1.33,0,0,1-.547.361l1.034,1.526.366.2v.088h-.88l-1.05-1.663h-.454V292.8l.41.224v.088Zm1.34-3.309h-.323v1.357h.356a.82.82,0,0,0,.56-.194.629.629,0,0,0,.221-.5.6.6,0,0,0-.216-.49.917.917,0,0,0-.6-.178" transform="translate(-255.647 -243.166)" fill="#1a1a1a"/>
    <path id="Path_207" data-name="Path 207" d="M331.939,293.111v-.088l.443-.219v-3l-.443-.219V289.5h2.746v.941H334.6l-.355-.64h-1.285v1.3h.908l.279-.459h.088v1.209h-.088l-.279-.448h-.908v1.411h1.433l.361-.722h.088v1.023Z" transform="translate(-278.811 -243.166)" fill="#1a1a1a"/>
    <path id="Path_208" data-name="Path 208" d="M142.281,12.524A10.373,10.373,0,0,0,138,8.439a14.453,14.453,0,0,0-6.84-1.489H119.612v.611l2.878,1.565V22.332l-.29.764H114.75V2.175L117.967.61V0H106.759V.61l2.878,1.565V23.019l-2.878,1.565V25.2H122.49V29.97l-2.878,1.565v.611h11.309a12.366,12.366,0,0,0,9.176-3.894,13.1,13.1,0,0,0,2.692-4.352,15.248,15.248,0,0,0,.965-5.5,11.7,11.7,0,0,0-1.473-5.879M136.305,27.2a7.127,7.127,0,0,1-6.061,2.844H127.6v-21h2.167a7.646,7.646,0,0,1,6.484,2.863,12.34,12.34,0,0,1,2.184,7.673,12.4,12.4,0,0,1-2.133,7.616" transform="translate(-89.672 0.001)" fill="#161615"/>
    <path id="Path_209" data-name="Path 209" d="M247.555,240.743h-1.8l-.131-.064v-4.736l.832-.359v-.14h-.1V235.4H243.6v.048h-.04v.14l.741.358v2.021h-2.426V235.9l.683-.359v-.14h-2.75v.14l.744.359v4.783l-.744.359v.14h2.75v-.14l-.683-.359v-2.234H244.3v2.234l-.7.359v.028l-.04.02v.14H248.4v-2.137h-.14Z" transform="translate(-201.427 -197.72)" fill="#040405"/>
    <path id="Path_210" data-name="Path 210" d="M3.994,240.7H2.067v-4.8l.832-.359v-.14H0v.14l.744.359v4.783L0,241.037v.14H4.844v-2.137H4.7Z" transform="translate(0 -197.721)" fill="#040405"/>
    <path id="Path_211" data-name="Path 211" d="M37.05,235.537l.744.359v4.783l-.744.359v.14h2.812v-.14l-.745-.359V235.9l.745-.359v-.14H37.05Z" transform="translate(-31.12 -197.721)" fill="#040405"/>
    <path id="Path_212" data-name="Path 212" d="M63.976,237.25a3.7,3.7,0,0,1-.9-.521.759.759,0,0,1-.258-.591.8.8,0,0,1,.237-.6.824.824,0,0,1,.6-.228,1.225,1.225,0,0,1,.486.092,2.1,2.1,0,0,1,.442.267l.613.99h.149l-.088-1.4a3.257,3.257,0,0,0-.762-.3,3.463,3.463,0,0,0-.859-.1,2.164,2.164,0,0,0-.766.14,2.364,2.364,0,0,0-.674.39,2.019,2.019,0,0,0-.482.57,1.346,1.346,0,0,0-.18.67,1.363,1.363,0,0,0,.333.937,2.683,2.683,0,0,0,.955.648q.552.245.867.416a1.3,1.3,0,0,1,.451.364.832.832,0,0,1,.136.49.774.774,0,0,1-.3.661,1.249,1.249,0,0,1-.771.224,1.575,1.575,0,0,1-.565-.105,1.844,1.844,0,0,1-.512-.3l-.622-1.077h-.158l.088,1.48a4.353,4.353,0,0,0,.854.328,3.964,3.964,0,0,0,1.02.118,2.741,2.741,0,0,0,1.06-.21,2.054,2.054,0,0,0,.832-.613,1.489,1.489,0,0,0,.324-.963A1.394,1.394,0,0,0,65.15,238a4,4,0,0,0-1.174-.753" transform="translate(-51.529 -197.262)" fill="#040405"/>
    <path id="Path_213" data-name="Path 213" d="M95.805,235.123h-.771l-2.286,5.387-.534.3v.14h1.9v-.14l-.727-.315.6-1.454h2.076l.6,1.454-.762.315v.14h2.768v-.14l-.6-.315Zm-1.62,3.434.841-2.041.832,2.041Z" transform="translate(-77.455 -197.491)" fill="#040405"/>
    <path id="Path_214" data-name="Path 214" d="M157.662,235.739a4.142,4.142,0,0,0-1.769-.342h-2.987v.14l.744.359v4.783l-.744.359v.14h2.925a3.593,3.593,0,0,0,1.323-.237,3.236,3.236,0,0,0,1.051-.657,2.976,2.976,0,0,0,.7-1,3.148,3.148,0,0,0,.25-1.261,2.45,2.45,0,0,0-.381-1.349,2.573,2.573,0,0,0-1.108-.937m-.438,4.305a1.94,1.94,0,0,1-1.568.653h-.683v-4.818h.561a2.092,2.092,0,0,1,1.678.657,3.035,3.035,0,0,1,.013,3.508" transform="translate(-128.433 -197.721)" fill="#040405"/>
    <path id="Path_215" data-name="Path 215" d="M199.348,235.123h-.771l-2.286,5.387-.534.3v.14h1.9v-.14l-.727-.315.6-1.454H199.6l.6,1.454-.762.315v.14H202.2v-.14l-.6-.315Zm-1.62,3.434.841-2.041.832,2.041Z" transform="translate(-164.426 -197.491)" fill="#040405"/>
    <path id="Path_216" data-name="Path 216" d="M300.963,238.23l.756.412v1.621a2.7,2.7,0,0,1-.34.048q-.17.013-.315.013a1.556,1.556,0,0,1-.939-.307,2.073,2.073,0,0,1-.667-.871,3.371,3.371,0,0,1-.246-1.353,3.183,3.183,0,0,1,.255-1.318,2.157,2.157,0,0,1,.688-.88,1.607,1.607,0,0,1,.969-.315,1.883,1.883,0,0,1,.484.057,1.564,1.564,0,0,1,.442.206l.816,1.27h.153l-.093-1.542q-.247-.123-.5-.219a2.9,2.9,0,0,0-.569-.149,4.812,4.812,0,0,0-.769-.052,3.285,3.285,0,0,0-1.215.228,3.226,3.226,0,0,0-1.028.648,3.049,3.049,0,0,0-.705.985,2.978,2.978,0,0,0-.255,1.239,2.831,2.831,0,0,0,.225,1.134,2.744,2.744,0,0,0,.629.907,2.927,2.927,0,0,0,.935.6,3.02,3.02,0,0,0,1.143.215,3.471,3.471,0,0,0,.769-.092,4.3,4.3,0,0,0,.773-.254,2.485,2.485,0,0,0,.633-.39V238.65l.637-.42v-.14h-2.668Z" transform="translate(-250.21 -197.261)" fill="#040405"/>
    <path id="Path_217" data-name="Path 217" d="M343.512,238.2a2.168,2.168,0,0,0,.824-.547,1.189,1.189,0,0,0,.314-.828,1.232,1.232,0,0,0-.514-1.047,2.316,2.316,0,0,0-1.406-.381h-2.906v.14l.722.359v4.783l-.722.359v.14h2.642v-.14l-.637-.368V238.5h.45l1.572,2.68H345.7v-.14l-.612-.35Zm-.459-.438a1.123,1.123,0,0,1-.833.307h-.391v-2.19h.34a1.248,1.248,0,0,1,.888.285,1.049,1.049,0,0,1,.3.8,1.079,1.079,0,0,1-.306.8" transform="translate(-285.435 -197.721)" fill="#040405"/>
    <path id="Path_218" data-name="Path 218" d="M384.61,240.7h-2.065v-2.26h1.308l.476.736h.136V237.2h-.136l-.476.753h-1.308v-2.076h1.861l.629,1.034h.136V235.4h-4.631v.14l.722.359v4.783l-.722.359v.14h4.868v-1.787h-.136Z" transform="translate(-319.634 -197.721)" fill="#040405"/>
    <path id="Path_219" data-name="Path 219" d="M422.651,235.4v.14l.969.35v3.346l-3.3-3.837h-1.614v.14l.722.368v4.774l-.722.359v.14h2.286v-.14l-.968-.359V237l3.662,4.222h.527V235.9l.714-.359v-.14Z" transform="translate(-351.693 -197.721)" fill="#040405"/>
  </g>
</svg>
