<svg xmlns="http://www.w3.org/2000/svg" xmlns:xlink="http://www.w3.org/1999/xlink" width="36.697" height="31.888" viewBox="0 0 36.697 31.888">
  <defs>
    <clipPath id="clip-path">
      <rect id="Rectangle_357" data-name="Rectangle 357" width="36.697" height="31.888" fill="none"/>
    </clipPath>
  </defs>
  <g id="Group_325" data-name="Group 325" clip-path="url(#clip-path)">
    <path id="Path_265" data-name="Path 265" d="M35.235,12.423a10.289,10.289,0,0,0-4.249-4.052A14.336,14.336,0,0,0,24.2,6.894H12.748V7.5L15.6,9.052v13.1l-.288.758H7.926V2.158L11.117.6V0H0V.6L2.854,2.158V22.834L0,24.386v.606H15.6v4.736l-2.855,1.553v.606H23.966a12.267,12.267,0,0,0,9.1-3.862,12.993,12.993,0,0,0,2.67-4.317,15.125,15.125,0,0,0,.957-5.453,11.61,11.61,0,0,0-1.461-5.832m-5.928,14.56A7.07,7.07,0,0,1,23.295,29.8h-2.62V8.977h2.149a7.585,7.585,0,0,1,6.432,2.84,12.241,12.241,0,0,1,2.166,7.611,12.3,12.3,0,0,1-2.116,7.555" transform="translate(0.001 0.001)" fill="#161615"/>
  </g>
</svg>
