<svg xmlns="http://www.w3.org/2000/svg" xmlns:xlink="http://www.w3.org/1999/xlink" width="478" height="226.186" viewBox="0 0 478 226.186">
  <defs>
    <clipPath id="clip-path">
      <rect id="Rectangle_125" data-name="Rectangle 125" width="478" height="80.186" fill="none"/>
    </clipPath>
    <clipPath id="clip-path-2">
      <rect id="Rectangle_320" data-name="Rectangle 320" width="127.87" height="111.113" fill="none"/>
    </clipPath>
  </defs>
  <g id="Group_302" data-name="Group 302" transform="translate(-444 -237)">
    <g id="Group_301" data-name="Group 301" transform="translate(444 383)">
      <g id="Group_161" data-name="Group 161" transform="translate(0 0)" clip-path="url(#clip-path)">
        <path id="Path_220" data-name="Path 220" d="M112.553,77.8a14.924,14.924,0,0,1-3.838-.428,18.335,18.335,0,0,1-3.267-1.249l-.357-5.891h.571l1.892,3.891a8.894,8.894,0,0,0,2.463,1.5,6.737,6.737,0,0,0,2.428.464,4.716,4.716,0,0,0,3.267-1.071,3.731,3.731,0,0,0,1.2-2.927,3.786,3.786,0,0,0-.661-2.338,5.874,5.874,0,0,0-1.963-1.571q-1.3-.7-3.195-1.624A14.363,14.363,0,0,1,107.2,64a5.054,5.054,0,0,1-1.356-3.766,5.282,5.282,0,0,1,.625-2.481,7.41,7.41,0,0,1,1.7-2.143,8.918,8.918,0,0,1,2.392-1.517,6.847,6.847,0,0,1,2.748-.571,12.077,12.077,0,0,1,3.142.393,14.1,14.1,0,0,1,2.891,1.142l.357,5.712h-.571l-1.855-3.82a9.56,9.56,0,0,0-2.072-1.285,5.369,5.369,0,0,0-2.106-.393,3.436,3.436,0,0,0-2.553,1.035,3.933,3.933,0,0,0,.072,5.355,14.487,14.487,0,0,0,3.516,2.143,29.527,29.527,0,0,1,3.552,1.981,6.534,6.534,0,0,1,2.088,2.124,6.726,6.726,0,0,1-.036,5.963,6.742,6.742,0,0,1-1.891,2.16,8.981,8.981,0,0,1-5.284,1.767" transform="translate(4.693 2.39)" fill="#1a1a1a"/>
        <path id="Path_221" data-name="Path 221" d="M128.125,77.424v-.571l2.891-1.428V55.86l-2.891-1.427v-.571h9.531v.571l-2.892,1.427V75.425l2.892,1.428v.571Zm6.64-12.031,9.853-9.747-2.535-1.213v-.571h7.712v.571l-2.249.891-9.14,8.961,11,11.6,2.249.964v.571h-5.819Z" transform="translate(5.722 2.405)" fill="#1a1a1a"/>
        <path id="Path_222" data-name="Path 222" d="M157.582,77.424v-.571l2.892-1.428V55.86l-2.892-1.427v-.571h9.924a9.949,9.949,0,0,1,5.909,1.552,4.974,4.974,0,0,1,2.16,4.266,5.18,5.18,0,0,1-1.357,3.534,8.68,8.68,0,0,1-3.57,2.357l6.747,9.96,2.391,1.321v.571h-5.748l-6.855-10.853h-2.963v8.818l2.677,1.464v.571Zm8.746-21.6h-2.106v8.854h2.32a5.353,5.353,0,0,0,3.659-1.267,4.106,4.106,0,0,0,1.446-3.231,3.911,3.911,0,0,0-1.41-3.2,5.984,5.984,0,0,0-3.909-1.161" transform="translate(7.037 2.405)" fill="#1a1a1a"/>
        <path id="Path_223" data-name="Path 223" d="M183.93,77.693v-.571l2.248-1.178,9.175-21.99h1.964l9.068,21.883,2.392,1.285v.571h-9.426v-.571l3.142-1.249-2.642-6.426h-8.6l-2.606,6.461,3,1.214v.571ZM193,51.454a1.768,1.768,0,1,1,1.3-.517,1.767,1.767,0,0,1-1.3.517m-.927,16.03h7l-3.5-8.6Zm7.639-16.03a1.828,1.828,0,0,1-1.32-.517,1.855,1.855,0,0,1,0-2.606,1.828,1.828,0,0,1,1.32-.517,1.821,1.821,0,1,1,0,3.641" transform="translate(8.214 2.135)" fill="#1a1a1a"/>
        <path id="Path_224" data-name="Path 224" d="M215.233,77.424v-.571l2.892-1.428V55.86l-2.892-1.427v-.571h10.853a15.284,15.284,0,0,1,6.818,1.391,10.169,10.169,0,0,1,4.3,3.82,10.35,10.35,0,0,1,1.481,5.5,13.453,13.453,0,0,1-.964,5.141,12.1,12.1,0,0,1-2.7,4.07,12.515,12.515,0,0,1-4.07,2.677,13.32,13.32,0,0,1-5.123.964Zm9.889-21.6h-3.248V75.46h3.784a9.478,9.478,0,0,0,4.89-1.2,8.03,8.03,0,0,0,3.143-3.391,12.651,12.651,0,0,0-.019-10.389,7.993,7.993,0,0,0-3.284-3.445,10.613,10.613,0,0,0-5.266-1.214" transform="translate(9.611 2.405)" fill="#1a1a1a"/>
        <path id="Path_225" data-name="Path 225" d="M246.366,77.424v-.571l2.892-1.428V55.86l-2.892-1.427v-.571h10.853a15.285,15.285,0,0,1,6.818,1.391,10.166,10.166,0,0,1,4.3,3.82,10.34,10.34,0,0,1,1.481,5.5,13.433,13.433,0,0,1-.964,5.141,12.088,12.088,0,0,1-2.7,4.07,12.5,12.5,0,0,1-4.069,2.677,13.32,13.32,0,0,1-5.123.964Zm9.889-21.6h-3.248V75.46h3.784a9.478,9.478,0,0,0,4.89-1.2,8.021,8.021,0,0,0,3.142-3.391,12.645,12.645,0,0,0-.018-10.389,7.992,7.992,0,0,0-3.284-3.445,10.612,10.612,0,0,0-5.266-1.214" transform="translate(11.002 2.405)" fill="#1a1a1a"/>
        <path id="Path_226" data-name="Path 226" d="M275.482,77.431v-.57l2.248-1.178,9.176-21.991h1.963l9.068,21.883,2.392,1.286v.57H290.9v-.57l3.142-1.25L291.4,69.184h-8.6l-2.606,6.461,3,1.215v.57Zm8.14-10.209h7l-3.5-8.6Z" transform="translate(12.302 2.397)" fill="#1a1a1a"/>
        <path id="Path_227" data-name="Path 227" d="M306.786,77.424v-.571l2.892-1.428V55.86l-2.892-1.427v-.571h9.924a9.949,9.949,0,0,1,5.909,1.552,4.974,4.974,0,0,1,2.16,4.266,5.18,5.18,0,0,1-1.357,3.534,8.68,8.68,0,0,1-3.57,2.357l6.747,9.96,2.391,1.321v.571h-5.748l-6.855-10.853h-2.963v8.818l2.677,1.464v.571Zm8.746-21.6h-2.106v8.854h2.32a5.353,5.353,0,0,0,3.659-1.267,4.106,4.106,0,0,0,1.446-3.231,3.911,3.911,0,0,0-1.41-3.2,5.984,5.984,0,0,0-3.909-1.161" transform="translate(13.7 2.405)" fill="#1a1a1a"/>
        <path id="Path_228" data-name="Path 228" d="M334.364,77.424v-.571l2.892-1.428V55.86l-2.892-1.427v-.571h17.921V60h-.571l-2.32-4.178H341v8.462h5.926l1.82-3h.571v7.888h-.571l-1.82-2.926H341v9.21h9.354l2.356-4.712h.572v6.676Z" transform="translate(14.931 2.405)" fill="#1a1a1a"/>
        <path id="Path_229" data-name="Path 229" d="M290.369,35.448H278.644l-.852-.416V4.119l5.431-2.344V.86h-.651V.547H264.563V.86H264.3v.915l4.838,2.334V17.3H253.3V3.807l4.461-2.344V.547H239.809v.916l4.859,2.344V35.022l-4.859,2.342v.916h17.952v-.916L253.3,35.022V20.442h15.837v14.58l-4.575,2.342v.186l-.263.127v.915h31.615V24.643H295Z" transform="translate(10.709 0.024)" fill="#040405"/>
        <path id="Path_230" data-name="Path 230" d="M26.069,35.137H13.492V3.808l5.431-2.344V.547H0v.916L4.859,3.808V35.023L0,37.365v.916H31.616V24.331H30.7Z" transform="translate(0 0.024)" fill="#040405"/>
        <path id="Path_231" data-name="Path 231" d="M37.05,1.463l4.859,2.344V35.023L37.05,37.365v.916H55.4v-.916l-4.86-2.342V3.807L55.4,1.463V.547H37.05Z" transform="translate(1.654 0.024)" fill="#040405"/>
        <path id="Path_232" data-name="Path 232" d="M78.5,15.666a24.13,24.13,0,0,1-5.859-3.4A4.955,4.955,0,0,1,70.953,8.4,5.226,5.226,0,0,1,72.5,4.46a5.377,5.377,0,0,1,3.888-1.487,8,8,0,0,1,3.173.6,13.688,13.688,0,0,1,2.886,1.745l4,6.459h.972l-.571-9.147A21.258,21.258,0,0,0,81.872.685,22.6,22.6,0,0,0,76.269,0a14.124,14.124,0,0,0-5,.914,15.427,15.427,0,0,0-4.4,2.544,13.175,13.175,0,0,0-3.143,3.718,8.784,8.784,0,0,0-1.173,4.373,8.894,8.894,0,0,0,2.173,6.116A17.515,17.515,0,0,0,70.953,21.9q3.6,1.6,5.66,2.715a8.456,8.456,0,0,1,2.945,2.373,5.432,5.432,0,0,1,.885,3.2A5.052,5.052,0,0,1,78.5,34.5a8.152,8.152,0,0,1-5.03,1.459,10.279,10.279,0,0,1-3.689-.686,12.032,12.032,0,0,1-3.344-1.944L62.377,26.3H61.348l.571,9.663A28.421,28.421,0,0,0,67.494,38.1a25.874,25.874,0,0,0,6.661.772A17.893,17.893,0,0,0,81.072,37.5a13.409,13.409,0,0,0,5.431-4,9.72,9.72,0,0,0,2.115-6.288,9.1,9.1,0,0,0-2.458-6.634A26.1,26.1,0,0,0,78.5,15.666" transform="translate(2.74 0)" fill="#040405"/>
        <path id="Path_233" data-name="Path 233" d="M115.653.274h-5.03L95.7,35.435l-3.486,1.942v.916H104.62v-.916l-4.746-2.056,3.887-9.492h13.55l3.887,9.492-4.974,2.056v.916h18.066v-.916L130.4,35.321ZM105.077,22.685l5.489-13.321L116,22.685Z" transform="translate(4.118 0.012)" fill="#040405"/>
        <path id="Path_234" data-name="Path 234" d="M183.949,2.777A27.035,27.035,0,0,0,172.4.547h-19.5v.916l4.859,2.344V35.023l-4.859,2.342v.916H172a23.453,23.453,0,0,0,8.633-1.545,21.117,21.117,0,0,0,6.86-4.286,19.42,19.42,0,0,0,4.545-6.519,20.542,20.542,0,0,0,1.63-8.233,15.992,15.992,0,0,0-2.487-8.8,16.8,16.8,0,0,0-7.232-6.116m-2.858,28.1q-3.6,4.261-10.233,4.26H166.4V3.691h3.658q7.26,0,10.949,4.288t3.687,11.491q0,7.147-3.6,11.406" transform="translate(6.828 0.024)" fill="#040405"/>
        <path id="Path_235" data-name="Path 235" d="M219.2.274h-5.03L199.243,35.435l-3.486,1.942v.916h12.406v-.916l-4.746-2.056,3.887-9.492h13.55l3.887,9.492-4.974,2.056v.916h18.066v-.916l-3.888-2.056ZM208.62,22.685l5.489-13.321,5.431,13.321Z" transform="translate(8.742 0.012)" fill="#040405"/>
        <path id="Path_236" data-name="Path 236" d="M317.962,22.067l4.936,2.687V35.331a17.622,17.622,0,0,1-2.218.314q-1.111.086-2.053.086a10.156,10.156,0,0,1-6.128-2,13.534,13.534,0,0,1-4.353-5.688,22,22,0,0,1-1.609-8.834,20.771,20.771,0,0,1,1.664-8.6,14.079,14.079,0,0,1,4.492-5.746A10.49,10.49,0,0,1,319.016,2.8a12.291,12.291,0,0,1,3.16.371,10.2,10.2,0,0,1,2.884,1.343l5.325,8.29h1l-.61-10.062q-1.609-.8-3.245-1.429a18.924,18.924,0,0,0-3.715-.973A31.408,31.408,0,0,0,318.794,0a21.44,21.44,0,0,0-7.93,1.487,21.056,21.056,0,0,0-6.71,4.231,19.9,19.9,0,0,0-4.6,6.431,19.439,19.439,0,0,0-1.664,8.09,18.475,18.475,0,0,0,1.469,7.4,17.908,17.908,0,0,0,4.1,5.918,19.1,19.1,0,0,0,6.1,3.915,19.712,19.712,0,0,0,7.459,1.4,22.654,22.654,0,0,0,5.017-.6,28.048,28.048,0,0,0,5.047-1.658,16.229,16.229,0,0,0,4.133-2.545V24.812l4.159-2.744v-.914H317.962Z" transform="translate(13.302 0)" fill="#040405"/>
        <path id="Path_237" data-name="Path 237" d="M363.893,18.841a14.149,14.149,0,0,0,5.38-3.573,7.763,7.763,0,0,0,2.051-5.4,8.044,8.044,0,0,0-3.354-6.833Q364.613.548,358.791.547H339.825v.915l4.713,2.344V35.022l-4.713,2.343v.915h17.247v-.915l-4.16-2.4V20.786h2.94L366.111,38.28h12.034v-.915l-3.993-2.287ZM360.9,15.983a7.332,7.332,0,0,1-5.434,2h-2.551V3.69h2.218a8.144,8.144,0,0,1,5.8,1.859,6.849,6.849,0,0,1,1.968,5.231,7.045,7.045,0,0,1-2,5.2" transform="translate(15.175 0.024)" fill="#040405"/>
        <path id="Path_238" data-name="Path 238" d="M407.1,35.136H393.629V20.385h8.539l3.106,4.8h.888V12.325h-.888l-3.106,4.916h-8.539V3.691h12.144l4.1,6.746h.888V.547H380.541v.915l4.713,2.344V35.022l-4.713,2.343v.915h31.776V26.618h-.887Z" transform="translate(16.993 0.024)" fill="#040405"/>
        <path id="Path_239" data-name="Path 239" d="M444.441.547v.915l6.322,2.286V25.588L429.245.547H418.709v.915l4.715,2.4V35.022l-4.715,2.343v.915h14.918v-.915l-6.321-2.343V11.01l23.9,27.556h3.438V3.806L459.3,1.462V.547Z" transform="translate(18.698 0.024)" fill="#040405"/>
      </g>
    </g>
    <g id="Group_300" data-name="Group 300" transform="translate(619.065 237)">
      <g id="Group_299" data-name="Group 299" clip-path="url(#clip-path-2)">
        <path id="Path_261" data-name="Path 261" d="M122.778,43.289a35.853,35.853,0,0,0-14.8-14.119q-9.716-5.147-23.642-5.146H44.423v2.111l9.948,5.41V77.189l-1,2.641H27.619V7.52l11.119-5.41V0H0V2.111L9.947,7.52V79.566L0,84.977v2.111H54.371v16.5L44.423,109v2.112H83.512a42.743,42.743,0,0,0,31.717-13.459,45.274,45.274,0,0,0,9.3-15.043,52.7,52.7,0,0,0,3.335-19,40.455,40.455,0,0,0-5.091-20.321M102.121,94.025q-7.373,9.831-20.949,9.83H72.043V31.281h7.49q14.862,0,22.412,9.9T109.494,67.7q0,16.5-7.373,26.325" transform="translate(0 0)" fill="#161615"/>
      </g>
    </g>
  </g>
</svg>
